<svg width="30" height="24" viewBox="0 0 30 24" fill="none" xmlns="http://www.w3.org/2000/svg">
<path d="M0 22.8026C0 18.8085 0.595606 15.0246 1.78682 11.451C2.97803 7.80731 4.76485 4.19864 7.14727 0.625L12.1924 2.93735C10.4406 6.30077 9.21437 9.38391 8.51366 12.1868C7.88302 14.9896 7.5677 17.6173 7.5677 20.0698C7.5677 20.8406 7.5677 21.5062 7.5677 22.0668C7.5677 22.6274 7.60273 23.223 7.67281 23.8536H0V22.8026ZM17.0273 22.8026C17.0273 18.8085 17.6229 15.0246 18.8141 11.451C20.0054 7.80731 21.7922 4.19864 24.1746 0.625L29.2197 2.93735C27.4679 6.30077 26.2417 9.38391 25.541 12.1868C24.9103 14.9896 24.595 17.6173 24.595 20.0698C24.595 20.8406 24.595 21.5062 24.595 22.0668C24.595 22.6274 24.6301 23.223 24.7001 23.8536H17.0273V22.8026Z" fill="#1254B5"/>
</svg>
