<svg width="30" height="24" viewBox="0 0 30 24" fill="none" xmlns="http://www.w3.org/2000/svg">
<path d="M29.2187 1.67596C29.2187 5.67002 28.6231 9.45387 27.4319 13.0275C26.2407 16.6712 24.4539 20.2799 22.0715 23.8535L17.0263 21.5412C18.7781 18.1777 20.0044 15.0946 20.7051 12.2918C21.3357 9.4889 21.651 6.86123 21.651 4.40873C21.651 3.63795 21.651 2.97227 21.651 2.4117C21.651 1.85113 21.616 1.25552 21.5459 0.624882L29.2187 0.624882L29.2187 1.67596ZM12.1914 1.67596C12.1914 5.67002 11.5958 9.45387 10.4046 13.0275C9.2134 16.6712 7.42658 20.2799 5.04416 23.8535L-0.000976765 21.5412C1.7508 18.1777 2.97705 15.0946 3.67777 12.2918C4.30841 9.48891 4.62373 6.86123 4.62373 4.40874C4.62373 3.63795 4.62373 2.97228 4.62373 2.41171C4.62373 1.85113 4.58869 1.25553 4.51862 0.624884L12.1914 0.624883L12.1914 1.67596Z" fill="#1254B5"/>
</svg>
