<?xml version="1.0" encoding="utf-8"?><svg width="30" height="24" fill="none" xmlns="http://www.w3.org/2000/svg" viewBox="0 0 30 24"><path d="M29.219 1.676c0 3.994-.596 7.778-1.787 11.351-1.191 3.644-2.978 7.253-5.36 10.827l-5.046-2.313c1.752-3.363 2.978-6.446 3.68-9.25.63-2.802.945-5.43.945-7.882V2.412c0-.56-.035-1.156-.105-1.787h7.673v1.051zm-17.028 0c0 3.994-.595 7.778-1.786 11.351-1.192 3.644-2.978 7.253-5.36 10.827L-.002 21.54c1.752-3.363 2.978-6.446 3.679-9.25.63-2.802.946-5.43.946-7.882V2.412c0-.56-.035-1.156-.105-1.787h7.672v1.051z" fill="#1254B5"/></svg>