<?xml version="1.0" encoding="utf-8"?><svg width="30" height="24" fill="none" xmlns="http://www.w3.org/2000/svg" viewBox="0 0 30 24"><path d="M0 22.803c0-3.995.596-7.778 1.787-11.352C2.978 7.807 4.765 4.199 7.147.625l5.045 2.312c-1.751 3.364-2.978 6.447-3.678 9.25-.631 2.803-.946 5.43-.946 7.883v1.997c0 .56.035 1.156.105 1.787H0v-1.051zm17.027 0c0-3.995.596-7.778 1.787-11.352 1.191-3.644 2.978-7.252 5.36-10.826l5.046 2.312c-1.752 3.364-2.978 6.447-3.679 9.25-.63 2.803-.946 5.43-.946 7.883v1.997c0 .56.035 1.156.105 1.787h-7.673v-1.051z" fill="#1254B5"/></svg>