<svg width="9" height="16" viewBox="0 0 9 16" fill="none" xmlns="http://www.w3.org/2000/svg">
<path d="M7.90559 0.5H6.97797C4.39975 0.5 2.30223 2.33559 2.30223 4.59179V6.31866H0.717408C0.554215 6.31866 0.421875 6.43447 0.421875 6.57728V8.64624C0.421875 8.78905 0.554215 8.90486 0.717408 8.90486H2.30211V15.2414C2.30211 15.3842 2.43445 15.5 2.59765 15.5H4.96191C5.1251 15.5 5.25744 15.3842 5.25744 15.2414V8.90486H7.60905C7.77225 8.90486 7.90459 8.78905 7.90459 8.64624V6.57728C7.90459 6.43447 7.77225 6.31866 7.60905 6.31866H5.25744V4.59179C5.25744 3.76162 6.02925 3.08621 6.97785 3.08621H7.90547C8.06867 3.08621 8.20101 2.9704 8.20101 2.82759V0.758621C8.20112 0.61581 8.06879 0.5 7.90559 0.5Z" fill="#1254B5"/>
</svg>
