<svg width="30" height="31" viewBox="0 0 30 31" fill="none" xmlns="http://www.w3.org/2000/svg">
<path d="M25.4686 4.47502C22.6661 1.59962 18.9391 0.015288 14.9682 0.0136719C6.78661 0.0136719 0.127736 6.83751 0.124461 15.2251C0.12341 17.9063 0.806918 20.5234 2.10586 22.8303L0 30.7134L7.86889 28.598C10.037 29.8099 12.478 30.4485 14.9623 30.4496H14.9684C23.1493 30.4496 29.8088 23.6249 29.8121 15.2372C29.8136 11.1725 28.2711 7.35042 25.4686 4.47502ZM14.9684 27.8804H14.9634C12.7496 27.8795 10.5782 27.27 8.68397 26.118L8.23342 25.844L3.56391 27.0993L4.8103 22.4335L4.51687 21.9551C3.28188 19.942 2.62962 17.6151 2.63059 15.2261C2.63326 8.25472 8.16789 2.58295 14.9732 2.58295C18.2685 2.58424 21.3662 3.9012 23.6956 6.29109C26.0249 8.68097 27.307 11.8578 27.3058 15.2363C27.3032 22.2083 21.7686 27.8804 14.9684 27.8804ZM21.7358 18.4107C21.3649 18.2205 19.5414 17.3009 19.2014 17.174C18.8615 17.0471 18.6143 16.9837 18.3669 17.3643C18.1197 17.7448 17.4089 18.601 17.1925 18.8547C16.9762 19.1084 16.7598 19.1401 16.3889 18.9498C16.018 18.7596 14.823 18.3582 13.4063 17.0632C12.3038 16.0554 11.5594 14.8106 11.343 14.43C11.1267 14.0494 11.32 13.8438 11.5057 13.6542C11.6725 13.484 11.8766 13.2103 12.062 12.9883C12.2474 12.7664 12.3093 12.6078 12.4329 12.3541C12.5565 12.1004 12.4947 11.8784 12.402 11.6882C12.3093 11.4979 11.5675 9.62701 11.2584 8.86596C10.9574 8.12476 10.6515 8.22505 10.4239 8.21341C10.2078 8.20238 9.96028 8.20006 9.71305 8.20006C9.46583 8.20006 9.06398 8.29517 8.72403 8.67571C8.38407 9.05625 7.42593 9.97585 7.42593 11.8467C7.42593 13.7176 8.75491 15.5251 8.94037 15.7788C9.12583 16.0325 11.5557 19.8718 15.2763 21.5183C16.1612 21.9099 16.852 22.1438 17.3907 22.319C18.2792 22.6082 19.0877 22.5674 19.7268 22.4696C20.4394 22.3605 21.9212 21.5501 22.2303 20.6622C22.5394 19.7743 22.5394 19.0132 22.4466 18.8547C22.3539 18.6961 22.1067 18.601 21.7358 18.4107Z" fill="#242B30"/>
</svg>
