<svg width="16" height="11" viewBox="0 0 16 11" fill="none" xmlns="http://www.w3.org/2000/svg">
<path d="M10.3674 6.12259L9.02734 7.38312C8.48393 7.89435 7.52781 7.90536 6.97265 7.38312L5.63256 6.12259L0.819562 10.6494C0.998719 10.7271 1.19625 10.7734 1.40625 10.7734H14.5937C14.8037 10.7734 15.0012 10.7271 15.1803 10.6495L10.3674 6.12259Z" fill="#1254B5"/>
<path d="M14.5938 0.226562H1.40625C1.19625 0.226562 0.998719 0.27291 0.819625 0.350576L5.96266 5.18816C5.963 5.18849 5.96341 5.18855 5.96375 5.18887L7.63644 6.76258C7.81406 6.9291 8.186 6.9291 8.36363 6.76258L10.0356 5.18989C10.0356 5.18989 10.036 5.18919 10.0363 5.18887C10.0363 5.18887 10.0371 5.18849 10.0374 5.18816L15.1803 0.350547C15.0012 0.272852 14.8038 0.226562 14.5938 0.226562Z" fill="#1254B5"/>
<path d="M0.149562 0.965195C0.056875 1.14092 0 1.33598 0 1.54492V9.45507C0 9.66402 0.0568125 9.85908 0.149531 10.0348L4.97087 5.50014L0.149562 0.965195Z" fill="#1254B5"/>
<path d="M15.8504 0.965137L11.0292 5.50015L15.8504 10.0349C15.9431 9.85915 16 9.66409 16 9.45508V1.54492C16 1.33592 15.9431 1.14086 15.8504 0.965137Z" fill="#1254B5"/>
</svg>
