<svg width="17" height="9" viewBox="0 0 17 9" fill="none" xmlns="http://www.w3.org/2000/svg">
<path d="M16.2907 7.11262C15.9355 6.73832 15.5318 6.40285 15.1415 6.07841C15.0027 5.96303 14.8592 5.84374 14.7208 5.72512C14.3236 5.38421 14.3091 5.25613 14.6236 4.8689C14.8412 4.60198 15.0719 4.33471 15.295 4.07623C15.4973 3.84171 15.7066 3.5992 15.9071 3.35589L15.9483 3.30587C16.3316 2.84027 16.7281 2.35882 16.939 1.77803C16.9938 1.6248 17.0513 1.39932 16.9198 1.21077C16.7884 1.02238 16.5334 0.9649 16.353 0.938054C16.2638 0.924769 16.1752 0.922956 16.0929 0.922956L13.5826 0.921379L13.5619 0.921222C13.1824 0.921222 12.9266 1.07823 12.78 1.40129C12.6401 1.70995 12.4864 2.03864 12.311 2.35117C11.9619 2.97351 11.5186 3.6903 10.8771 4.28812L10.85 4.31354C10.7742 4.38501 10.6884 4.46594 10.6257 4.46594C10.6161 4.46594 10.6056 4.46433 10.5937 4.46105C10.4609 4.4156 10.3717 4.13323 10.3757 4.00188C10.3758 4.00007 10.3758 3.99825 10.3758 3.99644L10.3741 1.44946C10.3741 1.44063 10.3733 1.43188 10.372 1.42313C10.3082 1.00909 10.1667 0.751357 9.63225 0.659467C9.61806 0.656984 9.60356 0.655762 9.5891 0.655762H6.97888C6.55362 0.655762 6.3193 0.807493 6.09903 1.0346C6.03958 1.0953 5.91582 1.22169 5.97716 1.37499C6.0394 1.53059 6.24143 1.56386 6.30722 1.57466C6.63378 1.62922 6.81785 1.80456 6.86998 2.11094C6.96101 2.64297 6.97219 3.21082 6.90519 3.89805C6.88651 4.08904 6.84955 4.23655 6.78866 4.36258C6.77451 4.39199 6.72435 4.48798 6.6732 4.48802C6.65695 4.48802 6.60993 4.48242 6.52429 4.43062C6.32181 4.30885 6.17367 4.13508 6.00096 3.92044C5.41341 3.19151 4.92029 2.3885 4.49323 1.46499C4.33485 1.12503 4.03905 0.934703 3.65995 0.929106C3.2434 0.923547 2.86574 0.920867 2.50555 0.920867C2.11199 0.920867 1.74713 0.92406 1.39085 0.930564C1.08584 0.935295 0.874873 1.01556 0.763865 1.1693C0.652677 1.32316 0.659907 1.52527 0.785375 1.76991C1.78975 3.73003 2.7004 5.15522 3.73818 6.39114C4.46535 7.25595 5.19471 7.85456 6.03329 8.27482C6.91678 8.7185 7.90687 8.93422 9.06006 8.93422C9.19078 8.93422 9.32595 8.93142 9.46224 8.92582C10.1323 8.89716 10.3809 8.68425 10.4124 8.1115C10.4273 7.8188 10.4638 7.51183 10.6277 7.25004C10.7312 7.0851 10.8276 7.0851 10.8593 7.0851C10.9204 7.0851 10.9961 7.10978 11.0774 7.15602C11.2233 7.23959 11.3483 7.35155 11.4509 7.44935C11.5474 7.54227 11.6428 7.63613 11.7383 7.73003C11.9444 7.93269 12.1576 8.14221 12.3802 8.34093C12.8675 8.77618 13.4044 8.9676 14.021 8.92605H16.3225C16.3274 8.92605 16.3323 8.9259 16.3372 8.92562C16.5666 8.91234 16.7652 8.80066 16.8822 8.61924C17.0271 8.39451 17.0242 8.1078 16.8744 7.85211C16.7044 7.563 16.4839 7.31599 16.2907 7.11262Z" fill="#1254B5"/>
</svg>
