<?xml version="1.0" encoding="utf-8"?><svg viewBox="0 0 30 24" xmlns="http://www.w3.org/2000/svg" xmlns:xlink="http://www.w3.org/1999/xlink"><style>:root>svg{display:none}:root>svg:target{display:block}</style><svg viewBox="0 0 24 24" id="ic_expand" xmlns="http://www.w3.org/2000/svg"><path d="M24 24H0V0h24v24z" fill="none" opacity=".87"/><path d="M16.59 8.59L12 13.17 7.41 8.59 6 10l6 6 6-6-1.41-1.41z"/></svg><svg fill="none" viewBox="0 0 21 16" id="ic_left" xmlns="http://www.w3.org/2000/svg"><path d="M.793 8.746a1 1 0 010-1.414L7.157.968A1 1 0 018.57 2.382L2.914 8.04l5.657 5.657a1 1 0 11-1.414 1.414L.793 8.746zM20.5 9.04h-19v-2h19v2z" fill="#A3A4A5"/></svg><svg viewBox="0 0 24 24" id="ic_person" xmlns="http://www.w3.org/2000/svg"><path d="M0 0h24v24H0V0z" fill="none"/><path d="M12 2C6.48 2 2 6.48 2 12s4.48 10 10 10 10-4.48 10-10S17.52 2 12 2zM7.07 18.28c.43-.9 3.05-1.78 4.93-1.78s4.51.88 4.93 1.78C15.57 19.36 13.86 20 12 20s-3.57-.64-4.93-1.72zm11.29-1.45c-1.43-1.74-4.9-2.33-6.36-2.33s-4.93.59-6.36 2.33A7.95 7.95 0 014 12c0-4.41 3.59-8 8-8s8 3.59 8 8c0 1.82-.62 3.49-1.64 4.83zM12 6c-1.94 0-3.5 1.56-3.5 3.5S10.06 13 12 13s3.5-1.56 3.5-3.5S13.94 6 12 6zm0 5c-.83 0-1.5-.67-1.5-1.5S11.17 8 12 8s1.5.67 1.5 1.5S12.83 11 12 11z"/></svg><svg fill="none" viewBox="0 0 21 16" id="ic_right" xmlns="http://www.w3.org/2000/svg"><path d="M20.207 8.746a1 1 0 000-1.414L13.843.968a1 1 0 10-1.414 1.414l5.657 5.657-5.657 5.657a1 1 0 001.414 1.414l6.364-6.364zM.5 9.04h19v-2H.5v2z" fill="#A3A4A5"/></svg><svg fill="none" viewBox="0 0 30 24" id="review" xmlns="http://www.w3.org/2000/svg"><path d="M0 22.803c0-3.995.596-7.778 1.787-11.352C2.978 7.807 4.765 4.199 7.147.625l5.045 2.312c-1.751 3.364-2.978 6.447-3.678 9.25-.631 2.803-.946 5.43-.946 7.883v1.997c0 .56.035 1.156.105 1.787H0v-1.051zm17.027 0c0-3.995.596-7.778 1.787-11.352 1.191-3.644 2.978-7.252 5.36-10.826l5.046 2.312c-1.752 3.364-2.978 6.447-3.679 9.25-.63 2.803-.946 5.43-.946 7.883v1.997c0 .56.035 1.156.105 1.787h-7.673v-1.051z" fill="#1254B5"/></svg><svg fill="none" viewBox="0 0 30 24" id="review-1" xmlns="http://www.w3.org/2000/svg"><path d="M29.219 1.676c0 3.994-.596 7.778-1.787 11.351-1.191 3.644-2.978 7.253-5.36 10.827l-5.046-2.313c1.752-3.363 2.978-6.446 3.68-9.25.63-2.802.945-5.43.945-7.882V2.412c0-.56-.035-1.156-.105-1.787h7.673v1.051zm-17.028 0c0 3.994-.595 7.778-1.786 11.351-1.192 3.644-2.978 7.253-5.36 10.827L-.002 21.54c1.752-3.363 2.978-6.446 3.679-9.25.63-2.802.946-5.43.946-7.882V2.412c0-.56-.035-1.156-.105-1.787h7.672v1.051z" fill="#1254B5"/></svg></svg>