<svg width="10" height="16" viewBox="0 0 10 16" fill="none" xmlns="http://www.w3.org/2000/svg">
<path d="M8.23525 10.3658C7.60032 10.7698 6.7345 11.0296 5.63779 11.145L8.43728 13.9445C8.6874 14.1946 8.75475 14.4833 8.6393 14.8103C8.52386 15.1567 8.31221 15.3683 8.00437 15.4453C7.71576 15.5415 7.42715 15.4838 7.13855 15.2721C6.75374 14.8873 6.01298 14.1465 4.91627 13.0498L2.72286 15.2432C2.47273 15.4934 2.17451 15.5607 1.82818 15.4453C1.50109 15.3298 1.28944 15.1182 1.19324 14.8103C1.11628 14.5217 1.19324 14.2331 1.42413 13.9445C2.8864 12.463 3.61754 11.7222 3.61754 11.7222L4.22362 11.145C3.08843 11.0296 2.21299 10.7698 1.59729 10.3658C1.0778 10.0195 0.741091 9.74048 0.587168 9.52883C0.433244 9.29795 0.442864 9.00934 0.616028 8.66301C0.731471 8.41288 0.914256 8.25896 1.16438 8.20124C1.43375 8.12428 1.77046 8.22048 2.17451 8.48985C2.25147 8.54757 2.36691 8.62453 2.52083 8.72073C2.67476 8.81693 2.98261 8.942 3.44438 9.09592C3.92539 9.24984 4.41602 9.32681 4.91627 9.32681C5.41652 9.32681 5.89754 9.25946 6.35931 9.12478C6.82108 8.9901 7.14817 8.84579 7.34057 8.69187L7.65804 8.48985C8.06209 8.22048 8.38918 8.12428 8.6393 8.20124C8.90867 8.25896 9.11069 8.41288 9.24538 8.66301C9.3031 8.87465 9.34158 9.0382 9.36082 9.15364C9.38006 9.26908 9.33196 9.40377 9.21652 9.55769C9.10107 9.71162 8.97601 9.8463 8.84133 9.96174C8.70664 10.0579 8.50462 10.1926 8.23525 10.3658ZM1.16438 4.47821C1.16438 3.43922 1.52995 2.55416 2.26109 1.82302C2.99223 1.09189 3.87729 0.726318 4.91627 0.726318C5.58969 0.726318 6.215 0.899483 6.79222 1.24581C7.36943 1.5729 7.82158 2.02505 8.14867 2.60226C8.495 3.16024 8.66816 3.78555 8.66816 4.47821C8.66816 5.49795 8.30259 6.37339 7.57146 7.10453C6.84032 7.83567 5.95526 8.20124 4.91627 8.20124C3.87729 8.20124 2.99223 7.83567 2.26109 7.10453C1.52995 6.37339 1.16438 5.49795 1.16438 4.47821ZM3.06919 4.47821C3.06919 4.97846 3.25197 5.41137 3.61754 5.77694C3.98311 6.12327 4.41602 6.29643 4.91627 6.29643C5.41652 6.29643 5.84943 6.12327 6.215 5.77694C6.58057 5.41137 6.76336 4.97846 6.76336 4.47821C6.76336 3.95872 6.58057 3.52581 6.215 3.17948C5.84943 2.81391 5.41652 2.63112 4.91627 2.63112C4.58918 2.63112 4.28134 2.71771 3.99273 2.89087C3.70412 3.04479 3.47324 3.26606 3.30007 3.55467C3.14615 3.82403 3.06919 4.13188 3.06919 4.47821Z" fill="#1254B5"/>
</svg>
